<?xml version="1.0" encoding="iso-8859-1"?>
<!-- Generator: Adobe Illustrator 16.0.0, SVG Export Plug-In . SVG Version: 6.00 Build 0)  -->
<!DOCTYPE svg PUBLIC "-//W3C//DTD SVG 1.1//EN" "http://www.w3.org/Graphics/SVG/1.1/DTD/svg11.dtd">
<svg xmlns="http://www.w3.org/2000/svg" xmlns:xlink="http://www.w3.org/1999/xlink" aria-hidden="true" role="img" width="22" height="17" preserveAspectRatio="xMidYMid meet" viewBox="0 0 24 24"><rect x="0" y="0" width="24" height="24" fill="none" stroke="none" /><path d="M11.5 4.3c-.9 1.9-2.2 4.8-2.2 4.8s-3.1.4-5.2.6c-.2 0-.4.2-.4.3c-.1.2 0 .4.1.5c1.6 1.4 3.9 3.6 3.9 3.6s-.6 3.1-1.1 5.2c0 .2 0 .4.2.5c.2.2.4.2.6.1c1.8-1 4.6-2.6 4.6-2.6V4c-.2 0-.4.2-.5.3z" fill="#efb467"/></svg>